<svg width="35" height="35" viewBox="0 0 31 31" fill="none" xmlns="http://www.w3.org/2000/svg">
<path d="M28.416 22.4704L28.416 8.58503C28.416 6.85481 26.3071 5.87377 24.9447 6.87963L16.791 12.899V8.58503C16.791 6.85481 14.6821 5.87377 13.3197 6.87963L3.10742 14.4202C2.41266 14.9342 2.40877 15.9723 3.09967 16.4914L13.3195 24.1582C14.725 25.1527 16.791 23.9527 16.791 22.4704V18.0404L24.9447 24.1582C26.5218 25.1718 28.416 23.9143 28.416 22.4704ZM25.8327 21.595L17.6639 15.4672L25.8327 9.43521V21.595ZM14.2077 21.595L6.0389 15.4672L14.2077 9.43521L14.2077 21.595Z" fill="currentColor"/>
</svg>
