<svg width="15" height="47" viewBox="0 0 15 47" fill="none" xmlns="http://www.w3.org/2000/svg">
<path d="M6.52655 30.4506C7.11018 32.4696 7.74832 34.4453 8.5741 36.3694C8.96794 37.287 9.63761 39.8642 10.5695 40.1962C10.7496 38.3589 10.2145 36.5215 10.6194 34.6372C10.7937 33.8257 11.0471 32.7143 11.9344 32.4048C13.2533 31.9447 13.0789 33.2725 13.1236 34.1761C13.2196 36.1188 13.5643 38.0832 13.8085 40.0154C13.9956 41.4947 15.1533 44.8171 13.6319 45.8911C12.1044 46.9694 9.9686 44.7434 8.82788 43.8574C6.97904 42.4214 5.10839 41.0072 3.27361 39.5549C2.76797 39.1547 1.62063 38.4447 1.66724 37.6619C1.73227 36.5686 2.77106 36.763 3.51545 37.0205C3.99613 37.1868 8.69655 39.9307 8.69532 39.9397C8.74245 39.5951 7.64884 37.9274 7.50572 37.6441C6.9213 36.4875 6.42399 35.25 5.96379 34.0129C4.76064 30.7787 3.45827 27.4083 3.05595 23.9526C2.86791 22.3378 3.25145 21.059 3.60493 19.5364C3.94057 18.0908 2.92796 17.0493 2.35588 15.6822C1.17392 12.8577 0.764963 9.72558 1.03813 6.6928C1.22463 4.62174 2.27384 -0.192318 5.41413 1.10134C6.23392 1.43905 6.88138 2.23335 5.86136 2.3603C5.16977 2.44635 4.97401 1.95381 4.2349 2.3868C3.70262 2.69861 3.49626 3.29379 3.32396 3.84537C2.46789 6.58597 2.74453 10.2519 3.48702 12.9651C3.77002 13.9992 4.51399 16.0171 5.32817 16.7519C6.05237 17.4054 6.78933 16.7506 7.88086 16.7185C10.7107 16.6353 13.7948 19.366 13.2161 22.4876C12.3779 27.0101 6.99494 22.785 5.54827 20.9554C4.07567 23.2852 5.85311 28.1209 6.52655 30.4506ZM10.9582 20.9263C10.2704 18.8665 8.83863 18.4634 6.97826 19.0652C7.50329 19.6684 11.8886 24.1449 10.9582 20.9263C10.8402 20.573 11.0401 21.2097 10.9582 20.9263Z" fill="#999999"/>
</svg>
