<svg width="23" height="49" viewBox="0 0 23 49" fill="none" xmlns="http://www.w3.org/2000/svg">
<path d="M12.1719 48.6266C11.6624 48.7568 11.1034 49.0926 10.6512 48.9838C7.78285 48.294 4.89351 47.6393 2.10124 46.7032C0.24826 46.082 -0.0159279 44.8193 1.19878 43.3464C3.01282 41.1467 4.92979 39.0325 6.795 36.8911C8.02362 38.6204 7.6984 39.8375 4.80794 43.6484C5.53465 43.583 6.05662 43.6125 6.5353 43.4815C13.9458 41.4537 22.2311 32.9591 20.4622 22.1886C19.7274 17.7148 18.6797 13.3704 16.4514 9.3928C14.9443 6.70265 13.1043 4.29744 10.4397 2.62509C10.0657 2.39038 9.82412 1.94333 9.44292 1.50444C11.1147 0.437367 12.4506 1.00318 13.5003 1.99675C14.9053 3.32643 16.2955 4.74852 17.3556 6.35504C21.4997 12.6352 23.3263 19.6434 22.961 27.1335C22.5946 34.645 16.0106 42.3275 8.47666 44.427C7.44711 44.714 6.40142 44.9422 5.00839 45.285C7.40092 46.8823 10.2472 46.3595 12.2285 47.9385C12.2096 48.1678 12.1907 48.3972 12.1719 48.6266Z" fill="#939393"/>
</svg>
