<svg width="14" height="33" viewBox="0 0 14 33" fill="none" xmlns="http://www.w3.org/2000/svg">
<path d="M9.00752 0.636245C12.9796 4.74528 12.8294 9.62547 11.6482 14.7008C10.4328 19.9224 7.55774 24.0259 3.01546 27.2842C3.64183 24.2668 5.1576 21.5385 4.47667 18.0584C4.05225 18.7064 3.73947 18.9774 3.6932 19.2864C3.21231 22.4974 2.07217 25.4856 0.658439 28.3886C0.479481 28.7561 0.304914 29.1385 0.213692 29.5331C-0.0343611 30.6068 0.395228 31.2447 1.4668 31.4389C1.73148 31.4868 2.00987 31.4886 2.2804 31.475C4.84745 31.3463 7.4101 31.2504 9.89714 32.2322C8.87122 29.9097 6.81942 29.4939 4.56278 29.4089C6.19583 27.6265 7.84996 26.0959 9.17663 24.3213C13.0753 19.1061 14.8234 13.2605 13.581 6.80504C13.2575 5.12423 12.3543 3.51788 11.5039 1.99811C10.8949 0.909773 10.4578 0.849944 9.00752 0.636245Z" fill="#939393"/>
</svg>
