<svg width="17" height="17" viewBox="0 0 17 17" fill="none" xmlns="http://www.w3.org/2000/svg">
<path d="M11.7207 14.9414C11.6552 14.9414 11.5905 14.9286 11.53 14.9036C11.4696 14.8786 11.4146 14.8419 11.3684 14.7956L5.22944 8.65639C5.13607 8.56299 5.08362 8.43633 5.08362 8.30427C5.08362 8.17221 5.13607 8.04555 5.22944 7.95215L11.3684 1.81289C11.4146 1.76663 11.4695 1.72993 11.5299 1.70488C11.5904 1.67984 11.6551 1.66694 11.7205 1.66692C11.7859 1.66691 11.8507 1.67978 11.9112 1.70479C11.9716 1.72981 12.0265 1.76649 12.0728 1.81273C12.119 1.85897 12.1557 1.91387 12.1808 1.97429C12.2058 2.03472 12.2187 2.09949 12.2187 2.1649C12.2188 2.23031 12.2059 2.29508 12.1809 2.35551C12.1559 2.41595 12.1192 2.47087 12.0729 2.51713L6.28596 8.3041L12.0729 14.0911C12.1426 14.1607 12.1901 14.2495 12.2093 14.3461C12.2286 14.4428 12.2187 14.543 12.181 14.634C12.1433 14.725 12.0794 14.8028 11.9975 14.8575C11.9155 14.9123 11.8192 14.9415 11.7207 14.9414Z" fill="currentColor"/>
</svg>
