<svg width="21" height="21" viewBox="0 0 21 21" fill="none" xmlns="http://www.w3.org/2000/svg">
<path d="M20.6289 5.52628H20.6102C20.2506 5.52858 20.1948 5.2162 20.1885 5.07117V2.80284C20.1885 2.56069 19.9923 2.36447 19.7508 2.36447H13.2654C11.6383 2.36447 11.0312 2.96756 10.8806 3.15689L10.8393 3.21431L10.8389 3.2153L10.7106 3.39117C10.5384 3.62775 10.3881 3.52701 10.3159 3.44958L10.0705 3.14344L9.94907 2.99709C9.74497 2.78283 9.21308 2.36447 8.15882 2.36447H1.24949C1.00733 2.36447 0.811114 2.56069 0.811114 2.80284V5.0423C0.811114 5.4344 0.598161 5.51315 0.467567 5.52628H0.370442C0.26413 5.53284 0.0167236 5.59453 0.0167236 6.04964V16.7232C0.0167236 16.9851 0.229021 17.197 0.490864 17.197H6.79677C8.80851 17.197 9.68526 17.9557 9.94808 18.2467L10.098 18.4324C10.098 18.4324 10.5006 18.8875 10.9246 18.4324L11.0125 18.3294L11.0138 18.3287L11.1261 18.1975C11.1293 18.1935 11.1562 18.1634 11.1953 18.1233C11.531 17.7968 12.37 17.197 14.0106 17.197H20.5091C20.7713 17.197 20.9833 16.9851 20.9833 16.7232V5.94628C20.9833 5.56041 20.704 5.52825 20.6289 5.52628ZM19.212 15.0485C19.212 15.2588 19.0365 15.4284 18.818 15.4284H13.4712C11.5684 15.4284 10.8777 16.2881 10.8777 16.2881L10.7901 16.4056L10.749 16.4624C10.5676 16.7088 10.3005 16.4643 10.2992 16.463L10.1761 16.3091C10.0849 16.1995 9.38601 15.4281 7.69452 15.4281H2.18202C1.96447 15.4281 1.7886 15.2581 1.7886 15.0481V3.67467C1.7886 3.46467 1.96447 3.2947 2.18202 3.2947H6.46176C9.64522 3.2947 9.94677 5.103 9.96744 5.62833V13.5381C9.96744 14.113 10.2414 14.2209 10.396 14.2367H10.626C10.7835 14.2209 11.0338 14.1274 11.0338 13.6789V5.52628H11.0312C11.0548 4.86839 11.3114 3.29437 13.2261 3.29437H18.818C19.0365 3.29437 19.212 3.46434 19.212 3.67434V15.0485Z" fill="currentColor"/>
</svg>
