<svg width="42" height="42" viewBox="0 0 42 42" fill="none" xmlns="http://www.w3.org/2000/svg">
<path d="M19.845 21.6169L32.8125 34.5712C33.0636 34.7863 33.3866 34.8986 33.7169 34.8859C34.0472 34.8731 34.3606 34.7362 34.5943 34.5024C34.8281 34.2687 34.965 33.9553 34.9778 33.625C34.9905 33.2947 34.8782 32.9717 34.6632 32.7206L22.7719 20.8294L34.3219 9.27937C34.5664 9.03345 34.7036 8.7008 34.7036 8.35405C34.7036 8.00731 34.5664 7.67465 34.3219 7.42874C34.1999 7.30572 34.0547 7.20808 33.8948 7.14145C33.7349 7.07481 33.5633 7.04051 33.39 7.04051C33.2168 7.04051 33.0452 7.07481 32.8853 7.14145C32.7253 7.20808 32.5802 7.30572 32.4582 7.42874L19.845 20.0419C19.6367 20.251 19.5196 20.5342 19.5196 20.8294C19.5196 21.1246 19.6367 21.4078 19.845 21.6169Z" fill="currentColor"/>
<path d="M7.27131 21.6169L20.2388 34.5712C20.4899 34.7863 20.8129 34.8986 21.1432 34.8859C21.4735 34.8731 21.7869 34.7362 22.0206 34.5024C22.2544 34.2687 22.3913 33.9553 22.4041 33.625C22.4168 33.2947 22.3045 32.9717 22.0894 32.7206L10.1982 20.8294L21.7482 9.27937C21.9926 9.03345 22.1298 8.7008 22.1298 8.35405C22.1298 8.00731 21.9926 7.67465 21.7482 7.42874C21.5023 7.18429 21.1696 7.04708 20.8229 7.04708C20.4761 7.04708 20.1435 7.18429 19.8976 7.42874L7.27131 20.0419C7.06292 20.251 6.94591 20.5342 6.94591 20.8294C6.94591 21.1246 7.06292 21.4078 7.27131 21.6169Z" fill="currentColor"/>
</svg>
