<svg width="42" height="42" viewBox="0 0 42 42" fill="none" xmlns="http://www.w3.org/2000/svg">
<path d="M22.155 20.3831L9.18746 7.42876C8.93638 7.21374 8.61341 7.10138 8.28308 7.11414C7.95276 7.1269 7.63941 7.26383 7.40566 7.49758C7.17191 7.73133 7.03498 8.04468 7.02222 8.375C7.00946 8.70533 7.12182 9.0283 7.33684 9.27938L19.2281 21.1706L7.67809 32.7206C7.43364 32.9665 7.29642 33.2992 7.29642 33.6459C7.29642 33.9927 7.43364 34.3253 7.67809 34.5713C7.8001 34.6943 7.94527 34.7919 8.10521 34.8586C8.26515 34.9252 8.4367 34.9595 8.60996 34.9595C8.78323 34.9595 8.95478 34.9252 9.11472 34.8586C9.27466 34.7919 9.41983 34.6943 9.54184 34.5713L22.155 21.9581C22.3633 21.749 22.4804 21.4658 22.4804 21.1706C22.4804 20.8754 22.3633 20.5922 22.155 20.3831Z" fill="currentColor"/>
<path d="M34.7287 20.3831L21.7612 7.42876C21.5101 7.21374 21.1871 7.10138 20.8568 7.11414C20.5265 7.1269 20.2131 7.26383 19.9794 7.49758C19.7456 7.73133 19.6087 8.04468 19.5959 8.375C19.5832 8.70533 19.6955 9.0283 19.9106 9.27938L31.8018 21.1706L20.2518 32.7206C20.0074 32.9665 19.8702 33.2992 19.8702 33.6459C19.8702 33.9927 20.0074 34.3253 20.2518 34.5713C20.4977 34.8157 20.8304 34.9529 21.1771 34.9529C21.5239 34.9529 21.8565 34.8157 22.1024 34.5713L34.7287 21.9581C34.9371 21.749 35.0541 21.4658 35.0541 21.1706C35.0541 20.8754 34.9371 20.5922 34.7287 20.3831Z" fill="currentColor"/>
</svg>
