<svg width="16" height="15" viewBox="0 0 16 15" fill="none" xmlns="http://www.w3.org/2000/svg">
<path d="M2 9.375C3.10457 9.375 4 8.53553 4 7.5C4 6.46447 3.10457 5.625 2 5.625C0.89543 5.625 0 6.46447 0 7.5C0 8.53553 0.89543 9.375 2 9.375Z" fill="#999999"/>
<path d="M8 9.375C9.10457 9.375 10 8.53553 10 7.5C10 6.46447 9.10457 5.625 8 5.625C6.89543 5.625 6 6.46447 6 7.5C6 8.53553 6.89543 9.375 8 9.375Z" fill="#999999"/>
<path d="M14 9.375C15.1046 9.375 16 8.53553 16 7.5C16 6.46447 15.1046 5.625 14 5.625C12.8954 5.625 12 6.46447 12 7.5C12 8.53553 12.8954 9.375 14 9.375Z" fill="#999999"/>
</svg>
