<svg width="30" height="30" viewBox="0 0 26 26" fill="none" xmlns="http://www.w3.org/2000/svg">
<path d="M5.41663 7.3125H13M5.41663 18.6875H13M5.41663 13H7.31246M18.6875 7.3125H20.5833M18.6875 7.3125C18.6875 8.35954 17.8387 9.20833 16.7916 9.20833C15.7446 9.20833 14.8958 8.35954 14.8958 7.3125C14.8958 6.26546 15.7446 5.41667 16.7916 5.41667C17.8387 5.41667 18.6875 6.26546 18.6875 7.3125ZM18.6875 18.6875H20.5833M18.6875 18.6875C18.6875 19.7345 17.8387 20.5833 16.7916 20.5833C15.7446 20.5833 14.8958 19.7345 14.8958 18.6875C14.8958 17.6405 15.7446 16.7917 16.7916 16.7917C17.8387 16.7917 18.6875 17.6405 18.6875 18.6875ZM13 13H20.5833M13 13C13 14.047 12.1512 14.8958 11.1041 14.8958C10.0571 14.8958 9.20829 14.047 9.20829 13C9.20829 11.953 10.0571 11.1042 11.1041 11.1042C12.1512 11.1042 13 11.953 13 13Z" stroke="currentColor" stroke-linecap="round" stroke-linejoin="round"/>
</svg>
