<svg width="110" height="18" viewBox="0 0 110 18" fill="currentColor" xmlns="http://www.w3.org/2000/svg">
<path d="M2.992 0.68L7.96 12.776L12.952 0.68H15.328V17H13.288V10.016L13.552 3.728L8.872 15.08H6.904L2.32 3.68L2.584 10.016V17H0.544V0.68H2.992ZM28.6264 16.304C27.9064 16.656 27.1864 16.896 26.4664 17.024C25.7464 17.168 25.0824 17.24 24.4744 17.24C22.7624 17.24 21.4824 16.752 20.6344 15.776C19.8024 14.8 19.3864 13.464 19.3864 11.768V10.328C19.3864 8.68 19.8024 7.36 20.6344 6.368C21.4824 5.376 22.6744 4.88 24.2104 4.88C25.0264 4.88 25.7704 5.048 26.4424 5.384C27.1304 5.704 27.6744 6.2 28.0744 6.872C28.4904 7.528 28.6984 8.376 28.6984 9.416C28.6984 10.088 28.6024 10.856 28.4104 11.72H21.3304V11.768C21.3304 12.984 21.5784 13.904 22.0744 14.528C22.5864 15.152 23.4024 15.464 24.5224 15.464C25.0344 15.464 25.5944 15.4 26.2024 15.272C26.8264 15.144 27.4344 14.944 28.0264 14.672L28.6264 16.304ZM24.2104 6.608C23.2824 6.608 22.5784 6.912 22.0984 7.52C21.6344 8.112 21.3784 8.952 21.3304 10.04H26.7064C26.7544 9.752 26.7784 9.48 26.7784 9.224C26.7784 8.328 26.5224 7.672 26.0104 7.256C25.5144 6.824 24.9144 6.608 24.2104 6.608ZM37.6962 6.728C37.2482 6.728 36.7442 6.848 36.1842 7.088C35.6242 7.312 34.9202 7.76 34.0722 8.432V17H32.1042V5.12H33.9762V6.776C34.8242 6.072 35.5762 5.584 36.2322 5.312C36.8882 5.024 37.5362 4.88 38.1762 4.88C38.9282 4.88 39.5522 5.056 40.0482 5.408C40.5442 5.744 40.9122 6.232 41.1522 6.872C42.0322 6.12 42.8162 5.6 43.5042 5.312C44.2082 5.024 44.8962 4.88 45.5682 4.88C46.6242 4.88 47.4322 5.232 47.9922 5.936C48.5522 6.624 48.8322 7.608 48.8322 8.888V17H46.8642V9.176C46.8642 7.544 46.2722 6.728 45.0882 6.728C44.6402 6.728 44.1282 6.848 43.5522 7.088C42.9922 7.312 42.2882 7.76 41.4402 8.432C41.4562 8.496 41.4642 8.568 41.4642 8.648C41.4642 8.728 41.4642 8.808 41.4642 8.888V17H39.4962V9.176C39.4962 7.544 38.8962 6.728 37.6962 6.728ZM62.3716 10.328V11.768C62.3716 13.464 61.9316 14.8 61.0516 15.776C60.1876 16.752 58.9476 17.24 57.3316 17.24C55.7316 17.24 54.4916 16.752 53.6116 15.776C52.7316 14.8 52.2916 13.464 52.2916 11.768V10.328C52.2916 8.664 52.7236 7.344 53.5876 6.368C54.4676 5.376 55.7156 4.88 57.3316 4.88C58.9476 4.88 60.1876 5.376 61.0516 6.368C61.9316 7.344 62.3716 8.664 62.3716 10.328ZM60.3316 10.328C60.3316 9.192 60.0756 8.304 59.5636 7.664C59.0516 7.008 58.3076 6.68 57.3316 6.68C56.3716 6.68 55.6276 7.008 55.0996 7.664C54.5876 8.304 54.3316 9.192 54.3316 10.328V11.768C54.3316 12.952 54.5876 13.864 55.0996 14.504C55.6276 15.144 56.3716 15.464 57.3316 15.464C58.3076 15.464 59.0516 15.144 59.5636 14.504C60.0756 13.864 60.3316 12.952 60.3316 11.768V10.328ZM72.1879 6.848C71.4679 6.848 70.7639 6.976 70.0759 7.232C69.4039 7.488 68.6839 7.976 67.9159 8.696V17H65.9479V5.12H67.8199V7.04C68.6359 6.24 69.3799 5.68 70.0519 5.36C70.7399 5.04 71.4519 4.88 72.1879 4.88V6.848ZM76.8484 2.216H74.6404V0.0079999H76.8484V2.216ZM76.7284 17H74.7604V5.12H76.7284V17ZM87.9554 15.296V17H79.6994V15.464L85.3874 6.848H79.9394V5.12H87.7154V6.68L82.0034 15.296H87.9554ZM99.478 16.304C98.758 16.656 98.038 16.896 97.318 17.024C96.598 17.168 95.934 17.24 95.326 17.24C93.614 17.24 92.334 16.752 91.486 15.776C90.654 14.8 90.238 13.464 90.238 11.768V10.328C90.238 8.68 90.654 7.36 91.486 6.368C92.334 5.376 93.526 4.88 95.062 4.88C95.878 4.88 96.622 5.048 97.294 5.384C97.982 5.704 98.526 6.2 98.926 6.872C99.342 7.528 99.55 8.376 99.55 9.416C99.55 10.088 99.454 10.856 99.262 11.72H92.182V11.768C92.182 12.984 92.43 13.904 92.926 14.528C93.438 15.152 94.254 15.464 95.374 15.464C95.886 15.464 96.446 15.4 97.054 15.272C97.678 15.144 98.286 14.944 98.878 14.672L99.478 16.304ZM95.062 6.608C94.134 6.608 93.43 6.912 92.95 7.52C92.486 8.112 92.23 8.952 92.182 10.04H97.558C97.606 9.752 97.63 9.48 97.63 9.224C97.63 8.328 97.374 7.672 96.862 7.256C96.366 6.824 95.766 6.608 95.062 6.608ZM109.196 6.848C108.476 6.848 107.772 6.976 107.084 7.232C106.412 7.488 105.692 7.976 104.924 8.696V17H102.956V5.12H104.828V7.04C105.644 6.24 106.388 5.68 107.06 5.36C107.748 5.04 108.46 4.88 109.196 4.88V6.848Z" fill="currentColor"/>
</svg>
